<?xml version="1.0" encoding="utf-8"?>
<!-- Generator: Adobe Illustrator 16.0.0, SVG Export Plug-In . SVG Version: 6.00 Build 0)  -->
<!DOCTYPE svg PUBLIC "-//W3C//DTD SVG 1.1//EN" "http://www.w3.org/Graphics/SVG/1.1/DTD/svg11.dtd">
<svg version="1.1" id="Layer_1" xmlns="http://www.w3.org/2000/svg" xmlns:xlink="http://www.w3.org/1999/xlink" x="0px" y="0px"
	 width="1219.398px" height="486.049px" viewBox="0 0 1219.398 486.049" enable-background="new 0 0 1219.398 486.049"
	 xml:space="preserve">
<g>
	<g>
		<path fill-rule="evenodd" clip-rule="evenodd" fill="#F7C700" d="M823.59,216.845c0,7.613,0.027,14.494-0.006,21.374
			c-0.073,15.051-9.663,24.78-24.58,24.8c-32.056,0.041-64.112,0.04-96.169,0c-15.055-0.02-24.484-9.537-24.494-24.724
			c-0.029-50.329-0.03-100.658,0.031-150.986c0.003-3.315-0.591-5.954-2.924-8.651c-6.178-7.143-5.621-17.399,0.561-24.664
			c1.476-1.733,2.709-3.929,3.302-6.116c4.224-15.589,13.96-25.92,29.589-29.745c15.808-3.868,29.491,0.734,40.29,12.979
			c2.179,2.47,3.732,3.447,7.145,2.23c6.254-2.229,10.104-1.452,19.252,2.347c5.277-7.275,12.118-12.455,21.24-14.282
			c13.766-2.756,27.725,3.558,34.744,15.856c6.952,12.177,5.454,27.875-4.269,37.86c-3.037,3.12-4.005,6.132-3.763,10.161
			c0.235,3.95,0.051,7.925,0.051,12.38c7.655,0,14.821-0.023,21.988,0.005c15.34,0.06,24.936,9.545,24.982,24.892
			c0.074,23.08,0.066,46.162,0.003,69.242c-0.042,15.597-9.619,25-25.32,25.037C838.223,216.86,831.205,216.845,823.59,216.845z
			 M693.777,220.458c38.254,0,76.263,0,114.193,0c0-44.981,0-89.593,0-134.14c-24.175,0-47.976,0-71.763,0
			c-0.317,5.269-0.186,10.276-1.003,15.125c-1.578,9.386-10.362,15.915-19.813,15.281c-9.697-0.651-17.365-8.457-17.766-18.185
			c-0.131-3.2-0.091-6.409-0.049-9.613c0.041-3.119-1.388-3.446-3.8-2.334C693.777,131.29,693.777,175.786,693.777,220.458z
			 M766.553,70.718c12.346,0,24.695,0.142,37.037-0.045c9.942-0.149,17.758-8.709,17.068-18.259
			c-0.713-9.88-9.137-17.187-18.922-16.41c-9.077,0.72-15.341,7.846-15.801,17.978c-0.239,5.24-2.787,8.458-7.006,8.844
			c-4.248,0.39-7.355-2.338-8.21-7.515c-0.6-3.631-2.175-6.456-5.823-7.49c-3.668-1.039-6.4,0.569-8.777,3.444
			c-3.572,4.323-8.348,4.885-11.586,1.326c-1.449-1.593-2.248-3.818-3.182-5.831c-4.789-10.312-15.877-16.287-26.813-14.388
			c-11.334,1.968-19.689,10.762-20.791,22.122c-0.361,3.73-1.446,6.679-4.867,8.814c-1.238,0.774-2.414,3.377-2,4.596
			c0.436,1.281,2.752,2.544,4.347,2.689c4.136,0.374,8.328,0.077,12.495,0.144c6.007,0.098,8.852,2.804,9.018,8.819
			c0.152,5.447,0.063,10.902,0.033,16.354c-0.016,2.799,0.469,5.47,3.877,5.461c3.334-0.009,4.004-2.64,4.01-5.442
			c0.008-5.292-0.027-10.583,0.018-15.874c0.056-6.691,2.625-9.293,9.318-9.317C742.18,70.692,754.366,70.724,766.553,70.718z
			 M823.933,112.977c0,29.867,0,59.074,0,88.607c7.039,0,13.74,0.004,20.44-0.002c8.622-0.009,10.988-2.411,10.999-11.222
			c0.016-11.848,0.005-23.696,0.004-35.544c0-10.887,0.06-21.775-0.031-32.662c-0.046-5.48-2.607-8.938-7.206-9.101
			C840.173,112.774,832.19,112.977,823.933,112.977z M693.93,236.261c-0.907,8.478,1.654,11.497,9.534,11.502
			c31.745,0.018,63.49,0.022,95.235-0.005c7.529-0.006,10.585-3.927,8.946-11.497C769.888,236.261,732.092,236.261,693.93,236.261z"
			/>
		<path fill-rule="evenodd" clip-rule="evenodd" fill="#F7C700" d="M709.124,162.793c-0.001-8.493-0.045-16.986,0.016-25.478
			c0.037-5.427,2.882-8.75,7.363-8.837c4.371-0.084,7.731,3.348,7.767,8.588c0.116,17.304,0.116,34.611,0,51.915
			c-0.034,5.262-3.373,8.676-7.757,8.592c-4.49-0.085-7.33-3.386-7.371-8.824C709.076,180.098,709.124,171.445,709.124,162.793z"/>
		<path fill-rule="evenodd" clip-rule="evenodd" fill="#F7C700" d="M743.764,162.543c0-8.491-0.051-16.985,0.02-25.476
			c0.043-5.139,2.802-8.347,7.129-8.577c4.374-0.233,7.941,3.177,7.98,8.345c0.135,17.464,0.136,34.931-0.001,52.394
			c-0.04,5.174-3.605,8.572-7.986,8.332c-4.334-0.24-7.075-3.421-7.12-8.58C743.71,180.169,743.766,171.357,743.764,162.543z"/>
		<path fill-rule="evenodd" clip-rule="evenodd" fill="#F7C700" d="M778.402,162.788c0-8.492-0.043-16.985,0.017-25.477
			c0.037-5.425,2.886-8.748,7.369-8.832c4.37-0.081,7.727,3.351,7.761,8.593c0.115,17.304,0.115,34.611,0,51.914
			c-0.034,5.261-3.378,8.675-7.761,8.588c-4.492-0.088-7.327-3.387-7.368-8.828C778.355,180.093,778.402,171.441,778.402,162.788z"
			/>
	</g>
</g>
<g>
	<g>
		<path fill="#EF692A" d="M449.413,189.723v-26.326l127.776-53.679v19.776l-110.184,47.001l110.184,47.129v19.648L449.413,189.723z"
			/>
		<path fill="#EF692A" d="M922.633,265.618l105.431-193.141h22.859L946.005,265.618H922.633z"/>
		<path fill="#EF692A" d="M1080.716,243.273v-19.648l110.183-47.129l-110.183-47.001v-19.776l127.775,53.679v26.326
			L1080.716,243.273z"/>
	</g>
</g>
<g>
	<path fill="#F7C700" d="M139.916,375.018c6.135,7.98,9.205,18.455,9.205,31.428c0,16.306-5.219,29.152-15.648,38.53
		c-10.434,9.381-24.768,14.071-43,14.071H21.04V274.946h58.123c16.832,0,29.851,3.772,39.056,11.309
		c9.205,7.541,13.807,18.763,13.807,33.664c0,8.77-1.578,16.569-4.734,23.407c-3.156,6.838-7.804,12.012-13.939,15.517
		C124.925,361.65,133.776,367.042,139.916,375.018z M46.025,351.479h29.982c9.817,0,17.313-1.973,22.487-5.917
		c5.169-3.945,7.758-11.001,7.758-21.172c0-10.167-2.589-17.226-7.758-21.171c-5.174-3.945-12.669-5.917-22.487-5.917H46.025
		V351.479z M112.827,428.67c5.958-5.169,8.942-12.842,8.942-23.013c0-21.04-11.136-31.56-33.401-31.56H46.025v62.331h42.343
		C98.711,436.428,106.864,433.844,112.827,428.67z"/>
	<path fill="#F7C700" d="M197.114,452.603c-10.434-6.049-18.369-14.243-23.801-24.591c-5.437-10.343-8.153-21.829-8.153-34.453
		c0-12.098,2.499-23.185,7.496-33.27c4.997-10.081,12.271-18.057,21.829-23.933c9.554-5.873,20.818-8.811,33.795-8.811
		c16.479,0,29.85,4.824,40.108,14.465c10.257,9.645,15.385,22.972,15.385,39.976c0,4.385-0.354,8.593-1.052,12.624h-93.365
		c1.578,16.66,6.661,28.495,15.254,35.505c8.588,7.015,19.635,10.52,33.138,10.52c13.499,0,25.86-2.54,37.083-7.627l3.156,18.673
		c-14.905,6.665-29.284,9.993-43.132,9.993C220.127,461.676,207.544,458.652,197.114,452.603z M259.313,378.305
		c0-9.291-2.63-16.569-7.89-21.829c-5.26-5.26-13.149-7.89-23.67-7.89c-10.171,0-18.147,2.499-23.933,7.496
		s-9.908,12.406-12.361,22.223H259.313z"/>
	<path fill="#F7C700" d="M331.769,452.603c-10.434-6.049-18.369-14.243-23.802-24.591c-5.437-10.343-8.152-21.829-8.152-34.453
		c0-12.098,2.498-23.185,7.495-33.27c4.997-10.081,12.271-18.057,21.829-23.933c9.555-5.873,20.818-8.811,33.796-8.811
		c16.479,0,29.85,4.824,40.107,14.465c10.257,9.645,15.385,22.972,15.385,39.976c0,4.385-0.354,8.593-1.052,12.624H324.01
		c1.578,16.66,6.662,28.495,15.254,35.505c8.589,7.015,19.635,10.52,33.139,10.52c13.499,0,25.86-2.54,37.083-7.627l3.156,18.673
		c-14.905,6.665-29.284,9.993-43.133,9.993C354.781,461.676,342.198,458.652,331.769,452.603z M393.968,378.305
		c0-9.291-2.63-16.569-7.89-21.829c-5.26-5.26-13.15-7.89-23.67-7.89c-10.171,0-18.147,2.499-23.933,7.496
		c-5.786,4.997-9.908,12.406-12.361,22.223H393.968z"/>
	<path fill="#F7C700" d="M442.358,330.176h19.462l2.894,21.303c6.661-8.239,13.018-14.289,19.067-18.147
		c6.049-3.854,12.401-5.786,19.067-5.786c2.104,0,4.117,0.263,6.049,0.789l-2.367,26.037c-2.28-0.526-4.91-0.789-7.89-0.789
		c-6.489,0-12.624,1.446-18.41,4.339s-9.994,6.271-12.624,10.125v90.999h-25.248V330.176z"/>
	<path fill="#EF692A" d="M514.947,431.168h28.403v27.878h-28.403V431.168z"/>
	<path fill="#EF692A" d="M577.539,274.946h24.985v184.101h-24.985V274.946z"/>
	<path fill="#EF692A" d="M753.487,388.037v71.01h-23.67v-71.01c0-13.849-2.589-23.888-7.759-30.114
		c-5.174-6.222-13.808-9.336-25.905-9.336c-7.718,0-14.729,1.405-21.04,4.208c-6.313,2.807-11.046,7.015-14.202,12.624v93.628
		h-23.67V330.176h18.41l2.63,13.676c6.838-6.135,13.717-10.389,20.646-12.756c6.924-2.367,14.243-3.55,21.961-3.55
		C735.952,327.546,753.487,347.711,753.487,388.037z"/>
	<path fill="#EF692A" d="M898.396,261.796v197.25h-21.04l-2.63-15.78c-4.385,5.962-10.084,10.52-17.095,13.676
		c-7.015,3.155-14.465,4.733-22.354,4.733c-10.874,0-20.777-2.979-29.72-8.941c-8.941-5.958-16.002-14.025-21.171-24.196
		c-5.174-10.167-7.759-21.39-7.759-33.664c0-11.921,2.408-23.054,7.232-33.401c4.82-10.343,11.703-18.583,20.646-24.722
		c8.942-6.135,19.199-9.205,30.771-9.205c7.713,0,14.99,1.405,21.828,4.208c6.839,2.807,12.711,7.101,17.621,12.887v-82.845H898.396
		z M857.632,435.771c5.786-3.242,10.521-8.285,14.202-15.123s5.522-15.427,5.522-25.774c0-9.641-1.841-17.97-5.522-24.985
		c-3.682-7.01-8.461-12.315-14.334-15.911c-5.876-3.592-11.88-5.392-18.015-5.392c-11.926,0-21.349,4.339-28.272,13.019
		c-6.929,8.679-10.389,19.77-10.389,33.27c0,12.977,3.505,23.847,10.52,32.612c7.011,8.77,16.393,13.15,28.142,13.15
		C845.797,440.636,851.846,439.017,857.632,435.771z"/>
	<path fill="#EF692A" d="M954.283,452.603c-10.434-6.049-18.369-14.243-23.802-24.591c-5.437-10.343-8.152-21.829-8.152-34.453
		c0-12.098,2.498-23.185,7.495-33.27c4.997-10.081,12.271-18.057,21.829-23.933c9.555-5.873,20.818-8.811,33.796-8.811
		c16.479,0,29.85,4.824,40.107,14.465c10.257,9.645,15.385,22.972,15.385,39.976c0,4.385-0.354,8.593-1.052,12.624h-93.365
		c1.578,16.66,6.662,28.495,15.254,35.505c8.589,7.015,19.635,10.52,33.139,10.52c13.499,0,25.86-2.54,37.083-7.627l3.156,18.673
		c-14.905,6.665-29.284,9.993-43.133,9.993C977.296,461.676,964.713,458.652,954.283,452.603z M1016.482,378.305
		c0-9.291-2.63-16.569-7.89-21.829c-5.26-5.26-13.15-7.89-23.67-7.89c-10.171,0-18.147,2.499-23.933,7.496
		c-5.786,4.997-9.908,12.406-12.361,22.223H1016.482z"/>
	<path fill="#EF692A" d="M1095.384,394.875l-43.921-64.698h26.563l32.35,51.022l29.719-51.022h27.615l-42.344,62.594l43.921,66.276
		h-26.563l-32.612-50.759l-33.138,50.759h-26.563L1095.384,394.875z"/>
</g>
</svg>
